# xmcd
#
# Track frame offsets:
#	150
#	9819
#	21747
#	32517
#	43406
#	55355
#	67824
#	79363
#	89629
#	101710
#
# Disc length: 1417 seconds
#
# Revision: 1
# Processed by: cddbd v1.5.1PL0 Copyright (c) Steve Scherf et al.
# Submitted via: EasyCDDAExtractor 5.0.7
#
DISCID=8305870a
DTITLE=Wilson Picket - If You Need Me
DYEAR=1999
DGENRE=Blues
TTITLE0=Baby Don't Weep No More
TTITLE1=Down To My Last Heartbreak
TTITLE2=I Can't Stop
TTITLE3=Baby Call On Me
TTITLE4=If You Need Me
TTITLE5=Peace Breaker
TTITLE6=R. B. Special
TTITLE7=I'm Gonna Love You
TTITLE8=I'll Never Be The Same
TTITLE9=Give Your Lovin' Right Now
EXTD=
EXTT0=
EXTT1=
EXTT2=
EXTT3=
EXTT4=
EXTT5=
EXTT6=
EXTT7=
EXTT8=
EXTT9=
PLAYORDER=
